<?xml version="1.0" encoding="UTF-8" standalone="no"?>
<!-- Created with Inkscape (http://www.inkscape.org/) -->

<svg
   width="1024"
   height="1024"
   viewBox="0 0 270.93334 270.93334"
   version="1.1"
   id="svg1272"
   inkscape:version="1.1 (c4e8f9e, 2021-05-24)"
   sodipodi:docname="icon.svg"
   inkscape:export-filename="/Users/ricardobento/Documents/IONIC/wasm-capacitor/resources/icon.png"
   inkscape:export-xdpi="96"
   inkscape:export-ydpi="96"
   xmlns:inkscape="http://www.inkscape.org/namespaces/inkscape"
   xmlns:sodipodi="http://sodipodi.sourceforge.net/DTD/sodipodi-0.dtd"
   xmlns="http://www.w3.org/2000/svg"
   xmlns:svg="http://www.w3.org/2000/svg">
  <sodipodi:namedview
     id="namedview1274"
     pagecolor="#ffffff"
     bordercolor="#666666"
     borderopacity="1.0"
     inkscape:pageshadow="2"
     inkscape:pageopacity="0.0"
     inkscape:pagecheckerboard="0"
     inkscape:document-units="px"
     showgrid="false"
     units="px"
     inkscape:zoom="0.23716796"
     inkscape:cx="771.60507"
     inkscape:cy="1433.5832"
     inkscape:window-width="1312"
     inkscape:window-height="982"
     inkscape:window-x="136"
     inkscape:window-y="25"
     inkscape:window-maximized="0"
     inkscape:current-layer="layer1"
     inkscape:lockguides="true"
     width="1024px" />
  <defs
     id="defs1269" />
  <g
     inkscape:label="Layer 1"
     inkscape:groupmode="layer"
     id="layer1">
    <g
       class="fa-group"
       id="g1382"
       transform="matrix(0.24715215,0,0,0.22972098,62.591842,76.608648)"
       inkscape:export-filename="/Users/ricardobento/Documents/IONIC/wasm-capacitor/resources/splash.png"
       inkscape:export-xdpi="96"
       inkscape:export-ydpi="96">
      <path
         class="fa-secondary"
         fill="currentColor"
         d="M 411.83,175.3 320,230.4 228.17,175.3 256,64 298.66,96 h 42.67 L 384,64 Z"
         opacity="0.4"
         id="path1378" />
      <path
         class="fa-primary"
         fill="currentColor"
         d="m 640,320 -49.63,-16.54 a 64,64 0 0 0 -73.49,25.21 L 480,384 468.18,372.18 a 64,64 0 0 0 -90.51,0 65.74,65.74 0 0 0 -5.95,6.86 L 320,448 268.28,379 a 64,64 0 0 0 -89.6,-12.8 64.73,64.73 0 0 0 -6.86,5.95 L 160,384 123.11,328.67 A 64,64 0 0 0 49.62,303.46 L 0,320 81.55,129.69 a 32,32 0 0 1 42,-16.8 32.58,32.58 0 0 1 3.86,2 L 320,230.4 512.56,114.87 a 32,32 0 0 1 43.91,11 32.58,32.58 0 0 1 2,3.86 z"
         id="path1380" />
    </g>
  </g>
</svg>
